<svg xmlns="http://www.w3.org/2000/svg" viewBox="0 0 512 512" fill="none">
  <!-- Background: Rounded square with gradient -->
  <defs>
    <linearGradient id="bgGradient" x1="0%" y1="0%" x2="100%" y2="100%">
      <stop offset="0%" style="stop-color:#FF6B35"/>
      <stop offset="100%" style="stop-color:#F7931E"/>
    </linearGradient>
    <linearGradient id="cameraGradient" x1="0%" y1="0%" x2="100%" y2="100%">
      <stop offset="0%" style="stop-color:#2D3748"/>
      <stop offset="100%" style="stop-color:#1A202C"/>
    </linearGradient>
  </defs>

  <!-- Main background shape -->
  <rect x="32" y="32" width="448" height="448" rx="96" fill="url(#bgGradient)"/>

  <!-- Menu clip/lens frame -->
  <circle cx="256" cy="256" r="160" fill="url(#cameraGradient)" stroke="white" stroke-width="16"/>

  <!-- Camera lens inner circle -->
  <circle cx="256" cy="256" r="120" fill="white"/>

  <!-- Menu icon in center (fork and menu/list) -->
  <g transform="translate(256, 256)">
    <!-- Fork -->
    <g transform="translate(-60, -30)">
      <rect x="0" y="0" width="8" height="70" rx="4" fill="#FF6B35"/>
      <rect x="16" y="0" width="8" height="70" rx="4" fill="#FF6B35"/>
      <rect x="32" y="0" width="8" height="70" rx="4" fill="#FF6B35"/>
      <rect x="4" y="70" width="32" height="12" rx="6" fill="#FF6B35"/>
    </g>

    <!-- Menu/Paper lines -->
    <g transform="translate(30, -50)">
      <rect x="0" y="0" width="80" height="12" rx="6" fill="#2D3748"/>
      <rect x="0" y="24" width="60" height="12" rx="6" fill="#4A5568"/>
      <rect x="0" y="48" width="70" height="12" rx="6" fill="#4A5568"/>
      <rect x="0" y="72" width="50" height="12" rx="6" fill="#4A5568"/>
    </g>

    <!-- AI sparkles -->
    <g fill="#FFD700">
      <!-- Top sparkle -->
      <polygon points="0,-95 4,-85 14,-85 6,-78 9,-68 0,-74 -9,-68 -6,-78 -14,-85 -4,-85"/>
      <!-- Left sparkle -->
      <polygon points="-90,10 -84,14 -84,24 -78,18 -68,22 -74,10 -78,0 -84,2 -84,-8" transform="scale(0.8)"/>
      <!-- Right sparkle -->
      <polygon points="85,-20 89,-14 99,-14 91,-8 94,2 85,-4 76,2 79,-8 71,-14 81,-14" transform="scale(0.7)"/>
    </g>
  </g>

  <!-- Focus corners -->
  <g stroke="white" stroke-width="12" fill="none" stroke-linecap="round">
    <!-- Top-left -->
    <path d="M100 140 L100 100 L140 100"/>
    <!-- Top-right -->
    <path d="M412 140 L412 100 L372 100"/>
    <!-- Bottom-left -->
    <path d="M100 372 L100 412 L140 412"/>
    <!-- Bottom-right -->
    <path d="M412 372 L412 412 L372 412"/>
  </g>
</svg>
